<svg xmlns="http://www.w3.org/2000/svg" version="1.1" xmlns:xlink="http://www.w3.org/1999/xlink" xmlns:svgjs="http://svgjs.com/svgjs" width="512" height="512" x="0" y="0" viewBox="0 0 792 792" style="enable-background:new 0 0 512 512" xml:space="preserve" class=""><g><path d="M544.5 99v495c0 82.021-66.479 148.5-148.5 148.5S247.5 676.021 247.5 594V148.5c0-54.673 44.327-99 99-99s99 44.327 99 99V594c0 27.349-22.176 49.5-49.5 49.5-27.349 0-49.5-22.151-49.5-49.5V198H297v396c0 54.673 44.327 99 99 99s99-44.327 99-99V148.5C495 66.479 428.521 0 346.5 0S198 66.479 198 148.5v470.25C210.202 716.389 295.045 792 396 792s185.798-75.611 198-173.25V99h-49.5z" fill="#2e294e" data-original="#000000" class=""></path></g></svg>