<svg id="Layer_1" height="512" viewBox="0 0 128 128" width="512" xmlns="http://www.w3.org/2000/svg"><g><path d="m64 124c-33.137 0-60-26.863-60-60s26.863-60 60-60c33.136 0 60 26.863 60 60s-26.863 60-60 60zm0-112c-28.719 0-52 23.281-52 52 0 28.718 23.281 52 52 52 28.718 0 52-23.281 52-52 0-28.718-23.281-52-52-52z"/><g><path d="m50.448 95.105c-1.024 0-2.047-.391-2.829-1.172-1.562-1.562-1.562-4.095 0-5.656l24.277-24.277-24.277-24.276c-1.562-1.563-1.562-4.095 0-5.657 1.563-1.562 4.096-1.561 5.657 0l27.104 27.105c.75.75 1.172 1.768 1.172 2.829s-.422 2.079-1.172 2.829l-27.104 27.104c-.781.781-1.805 1.171-2.828 1.171z"/></g></g></svg>