<svg xmlns="http://www.w3.org/2000/svg" version="1.1" xmlns:xlink="http://www.w3.org/1999/xlink" xmlns:svgjs="http://svgjs.com/svgjs" width="512" height="512" x="0" y="0" viewBox="0 0 3873 3873" style="enable-background:new 0 0 512 512" xml:space="preserve" class=""><g><path d="M3459.9 3143.1H413.1c-131.9 0-239.1-107.3-239.1-239.1s107.3-239.1 239.1-239.1h3046.8c131.9 0 239.1 107.3 239.1 239.1s-107.3 239.1-239.1 239.1zM413.1 2785.8c-65.1 0-118.1 53-118.1 118.1S348 3022 413.1 3022h3046.8c65.1 0 118.1-53 118.1-118.1s-53-118.1-118.1-118.1z" fill="#2e294e" data-original="#000000" class=""></path><path d="M3456.4 2785.8c-33.4 0-60.5-27.1-60.5-60.5 0-804.7-654.7-1459.4-1459.4-1459.4S477.1 1920.6 477.1 2725.3c0 33.4-27.1 60.5-60.5 60.5s-60.5-27.1-60.5-60.5c0-213.3 41.8-420.3 124.2-615.2 338.1-799.3 1264.5-1182.2 2071.4-841 576.4 243.8 965.2 810.9 965.2 1456.2 0 33.4-27.1 60.5-60.5 60.5z" fill="#2e294e" data-original="#000000" class=""></path><path d="M1936.5 1266c-147.8 0-268-120.2-268-268s120.2-268 268-268 268 120.2 268 268c0 147.7-120.2 268-268 268zm0-415c-81 0-147 65.9-147 147 0 81 65.9 147 147 147 81 0 147-65.9 147-147s-66-147-147-147zM2899.6 2214.1c-86.1-325.2-323.3-507.6-565-522.2-33.4-2-58.8-30.7-56.7-64.1 2-33.4 30.7-58.8 64.1-56.7 283 17.1 572.9 227.4 674.6 612.2 8.5 32.3-10.7 65.4-43 74-33.1 8.3-65.5-11.3-74-43.2z" fill="#2e294e" data-original="#000000" class=""></path></g></svg>