<svg xmlns="http://www.w3.org/2000/svg" version="1.1" xmlns:xlink="http://www.w3.org/1999/xlink" xmlns:svgjs="http://svgjs.com/svgjs" width="512" height="512" x="0" y="0" viewBox="0 0 64 64" style="enable-background:new 0 0 512 512" xml:space="preserve" class=""><g><path d="M55.57 35.97 31.19 11.59a.469.469 0 0 0-.29-.14l-10.42-1.3a.548.548 0 0 0-.42.15l-2.25 2.25c-2.529-2.27-7.84-6.51-9.88-4.47-1.71 1.71 1.78 7.09 4.42 9.93 1.228 1.3 4.805 4.135 7.53 4.15a1.979 1.979 0 0 0 1.5-.69.5.5 0 0 0-.06-.71.515.515 0 0 0-.71.06 1.021 1.021 0 0 1-.78.34c-2.4-.141-5.463-2.466-6.77-3.86-3.1-3.31-5.23-7.71-4.42-8.52.95-.95 4.47.92 8.46 4.48l-3.33 3.33a13.286 13.286 0 0 0 3.6 2.7 3.858 3.858 0 1 1 .14 3.39 18.3 18.3 0 0 1-5.87-3.96l-1.47 1.47a.493.493 0 0 0-.15.43l1.49 10.23a.521.521 0 0 0 .15.28L36.031 55.5a3.246 3.246 0 0 0 4.609 0l14.93-14.92a3.265 3.265 0 0 0 0-4.61z" fill="#2e294e" data-original="#000000" class=""></path><path d="M19.93 23.16h-.19a3.477 3.477 0 0 1-.55-.04 2.759 2.759 0 0 0 1.71.58 2.865 2.865 0 1 0-2.64-3.96c.05.02.09.04.14.06a3.731 3.731 0 0 0 1.34.36.32.32 0 0 0 .15-.02 1.446 1.446 0 0 1 1.11-.49 1.514 1.514 0 0 1 .95.34 1.5 1.5 0 0 1 .21 2.11 3.012 3.012 0 0 1-2.23 1.06z" fill="#2e294e" data-original="#000000" class=""></path></g></svg>