<svg xmlns="http://www.w3.org/2000/svg" version="1.1" xmlns:xlink="http://www.w3.org/1999/xlink" xmlns:svgjs="http://svgjs.com/svgjs" width="512" height="512" x="0" y="0" viewBox="0 0 64 64" style="enable-background:new 0 0 512 512" xml:space="preserve" class=""><g><path d="M55.73 4c-1.14 0-2.21.44-3.02 1.25L33.7 24.26a.996.996 0 0 0 0 1.41l.64.64c-6.79 1.45-21.88 5.08-26.16 9.36-5.5 5.5-5.62 14.22-.32 19.81.1.12.2.23.32.34l.01.01c.1.11.22.22.33.31 2.76 2.6 6.25 3.89 9.74 3.89 3.64 0 7.27-1.41 10.07-4.21 4.28-4.28 7.91-19.37 9.36-26.16l.64.64a1.001 1.001 0 0 0 1.41 0l19.01-19.01c.82-.82 1.26-1.89 1.25-3.01.01-1.14-.43-2.22-1.25-3.03-.8-.81-1.88-1.25-3.02-1.25zM6.68 49.8c-1.53-4.31-.55-9.26 2.91-12.72 2.64-2.63 11.02-5.39 19.42-7.48-5.91 2.98-13.6 7.18-16.66 10.24-3.18 3.19-5.16 6.81-5.67 9.96zm7.09-8.54c3.35-3.35 12.8-8.26 18.7-11.14L9 53.59c-1.44-2.81.54-8.11 4.77-12.33zM10.41 55l23.48-23.47c-2.89 5.91-7.8 15.36-11.15 18.7-4.22 4.23-9.52 6.22-12.33 4.77zm16.51-.59c-3.46 3.46-8.39 4.44-12.71 2.91 3.15-.51 6.77-2.49 9.95-5.67 3.06-3.06 7.26-10.75 10.24-16.66-2.08 8.4-4.85 16.78-7.48 19.42z" fill="#2e294e" data-original="#000000" class=""></path></g></svg>