<svg xmlns="http://www.w3.org/2000/svg" version="1.1" xmlns:xlink="http://www.w3.org/1999/xlink" xmlns:svgjs="http://svgjs.com/svgjs" width="512" height="512" x="0" y="0" viewBox="0 0 256 256" style="enable-background:new 0 0 512 512" xml:space="preserve" class=""><g><path d="M237.08 115.026a12.6 12.6 0 0 0-16.744-6.095L207.53 114.9v-4.019a11.54 11.54 0 0 0-2.941-22.6c-8.04-13.441-31.113-23.62-60.536-26.449V54.6c6.908-1.357 12.1-3.968 12.1-8.758 0-7.891-14.483-11.423-28.837-11.423s-28.84 3.536-28.84 11.427c0 4.79 5.189 7.4 12.1 8.758v7.236c-29.422 2.829-52.5 13.008-60.536 26.449a11.54 11.54 0 0 0-2.941 22.6v4.011l-12.809-5.969a12.6 12.6 0 0 0-10.65 22.839l23.46 10.937v51.586a29.9 29.9 0 0 0 29.87 29.87h100.69a29.9 29.9 0 0 0 29.87-29.87v-51.586l23.455-10.937a12.614 12.614 0 0 0 6.095-16.744zM47.1 135.425l-20.67-9.637a6 6 0 0 1 5.07-10.875l15.6 7.272zm58.117-89.639c1.323-1.557 8.811-4.763 22.1-4.763s20.777 3.205 22.1 4.763c-1.386 1.3-7.948 3.54-22.1 3.54s-20.717-2.245-22.104-3.54zm32.241 9.729v5.822q-4.974-.283-10.14-.287t-10.14.287v-5.823c3.346.3 6.823.411 10.14.411s6.789-.111 10.135-.411zm-63.28 21.962c14.138-6.338 33.009-9.828 53.136-9.828s39 3.49 53.135 9.828c7.019 3.146 12.434 6.846 15.95 10.793H58.228c3.516-3.946 8.931-7.646 15.95-10.793zM200.93 194.294a23.3 23.3 0 0 1-23.27 23.27H76.966a23.3 23.3 0 0 1-23.27-23.27v-82.923H200.93zm3.3-89.523H50.4a4.95 4.95 0 0 1 0-9.9h153.83a4.95 4.95 0 0 1 0 9.9zm23.97 21.017-20.666 9.637v-13.24l15.595-7.272a6 6 0 0 1 5.071 10.875z" fill="#2e294e" data-original="#000000" class=""></path><path d="M71.052 165.585v-44h-6.6v44h3.3zM71.052 187.035v-14.3h-6.6v14.3h3.3z" fill="#2e294e" data-original="#000000" class=""></path></g></svg>