<svg xmlns="http://www.w3.org/2000/svg" version="1.1" xmlns:xlink="http://www.w3.org/1999/xlink" xmlns:svgjs="http://svgjs.com/svgjs" width="200" height="200" x="0" y="0" viewBox="0 0 491.413 491.413" style="enable-background:new 0 0 512 512" xml:space="preserve"><g><path d="M432.158 0H325.145v50.232h107.014c4.971 0 9.024 4.054 9.024 9.024v107.698h50.229V59.257C491.411 26.586 464.825 0 432.158 0zM441.183 432.161c0 4.969-4.054 9.024-9.024 9.024H325.145v50.227h107.014c32.667 0 59.253-26.588 59.253-59.252V325.851h-50.229v106.31zM50.231 59.257c0-4.971 4.057-9.024 9.021-9.024h107V0h-107C26.588 0 .002 26.586.002 59.257v107.698h50.229V59.257zM50.231 432.161v-106.31H.002v106.311c0 32.664 26.586 59.252 59.25 59.252h107v-50.227h-107c-4.965-.001-9.021-4.057-9.021-9.026zM324.53 408.47c23.266 0 42.12-18.855 42.12-42.121 0-14.436-3.14-28.123-8.649-40.498-15.535-34.844-50.408-59.172-91.021-59.172h-43.953c-40.609 0-75.483 24.328-91.02 59.172-5.508 12.375-8.648 26.063-8.648 40.498 0 23.266 18.851 42.121 42.119 42.121H324.53z" fill="#bfbfbf" data-original="#000000"></path><ellipse cx="245.004" cy="160.931" rx="64.607" ry="83.003" fill="#bfbfbf" data-original="#000000"></ellipse></g></svg>