<svg xmlns="http://www.w3.org/2000/svg" version="1.1" xmlns:xlink="http://www.w3.org/1999/xlink" xmlns:svgjs="http://svgjs.com/svgjs" width="512" height="512" x="0" y="0" viewBox="0 0 24 24" style="enable-background:new 0 0 512 512" xml:space="preserve" class=""><g><path d="M21.8 9.4c0-.4-.3-.8-.8-.8s-.8.3-.8.8zm-8.4-6.6c.4 0 .8-.3.8-.8s-.3-.8-.8-.8zm6.8 6.6V18h1.5V9.4zM17 21.2H7v1.5h10zM3.8 18V6H2.2v12zM7 2.8h6.4V1.2H7zm0 18.4c-1.8 0-3.2-1.5-3.2-3.2H2.2c0 2.6 2.1 4.8 4.8 4.8zM20.2 18c0 1.8-1.5 3.2-3.2 3.2v1.5c2.6 0 4.8-2.1 4.8-4.8h-1.6zM3.8 6c0-1.8 1.5-3.2 3.2-3.2V1.2C4.4 1.2 2.2 3.4 2.2 6zM8 6.2c-.4 0-.8.4-.8.8s.4.8.8.8zm4 1.6c.4 0 .8-.3.8-.8s-.4-.8-.8-.8zm-4 0h4V6.2H8zM8 11.2c-.4 0-.8.3-.8.8s.3.8.8.8zm8 1.6c.4 0 .8-.3.8-.8s-.3-.8-.8-.8zm-8 0h8v-1.5H8zM8 16.2c-.4 0-.8.3-.8.8s.3.8.8.8zm8 1.6c.4 0 .8-.3.8-.8s-.3-.8-.8-.8zm-8 0h8v-1.5H8zM18 8.8c-.4 0-.8-.3-.8-.8V2c0-.4.3-.8.8-.8s.8.3.8.8v6c0 .4-.4.8-.8.8z" fill="#2e294e" data-original="#000000"></path><path d="M21 5.8h-6c-.4 0-.8-.3-.8-.8s.3-.8.8-.8h6c.4 0 .8.3.8.8s-.4.8-.8.8z" fill="#2e294e" data-original="#000000"></path></g></svg>