<svg xmlns="http://www.w3.org/2000/svg" version="1.1" xmlns:xlink="http://www.w3.org/1999/xlink" xmlns:svgjs="http://svgjs.com/svgjs" width="512" height="512" x="0" y="0" viewBox="0 0 512.002 512.002" style="enable-background:new 0 0 512 512" xml:space="preserve" class=""><g><path d="M243.654 188.633c-4.215 2.108-5.931 7.228-3.823 11.443a8.54 8.54 0 0 0 7.646 4.719c1.28 0 2.586-.29 3.806-.896.887-.452 21.786-11.153 21.786-33.237 0-12.066-6.374-18.449-11.034-23.1-4.181-4.181-6.033-6.238-6.033-11.034s1.852-6.852 6.033-11.034c4.659-4.651 11.034-11.034 11.034-23.1 0-22.084-20.898-32.785-21.786-33.229-4.173-2.082-9.267-.401-11.392 3.772-2.133 4.19-.452 9.31 3.712 11.469.119.06 12.399 6.536 12.399 17.988 0 4.796-1.852 6.852-6.033 11.034-4.659 4.651-11.034 11.034-11.034 23.1s6.374 18.449 11.034 23.1c4.181 4.181 6.033 6.238 6.033 11.034 0 11.452-12.279 17.928-12.348 17.971zM187.735 187.729c0 11.375-12.109 17.835-12.399 17.988-4.173 2.125-5.871 7.228-3.772 11.426a8.54 8.54 0 0 0 7.646 4.719c1.28 0 2.586-.29 3.806-.896.887-.452 21.786-11.153 21.786-33.237 0-12.066-6.374-18.449-11.034-23.1-4.181-4.181-6.033-6.238-6.033-11.034 0-11.452 12.271-17.929 12.348-17.963 4.215-2.108 5.931-7.236 3.814-11.452-2.099-4.215-7.219-5.939-11.443-3.814-.887.444-21.786 11.145-21.786 33.229 0 12.066 6.374 18.449 11.034 23.1 4.182 4.181 6.033 6.238 6.033 11.034zM324.269 187.729c0 11.375-12.1 17.835-12.39 17.988-4.181 2.125-5.879 7.228-3.78 11.426a8.54 8.54 0 0 0 7.646 4.719c1.28 0 2.586-.29 3.806-.896.896-.452 21.786-11.153 21.786-33.237 0-12.066-6.374-18.449-11.034-23.1-4.181-4.181-6.033-6.238-6.033-11.034 0-11.452 12.271-17.929 12.348-17.963 4.215-2.108 5.931-7.236 3.814-11.452-2.116-4.215-7.236-5.922-11.443-3.814-.896.444-21.786 11.145-21.786 33.229 0 12.066 6.374 18.449 11.034 23.1 4.18 4.181 6.032 6.238 6.032 11.034zM119.469 273.062c5.837 0 11.204 2.987 14.379 7.987 2.432 3.831 7.441 5.086 11.418 2.85 6.69-3.789 14.464-2.671 19.806 2.244a8.572 8.572 0 0 0 8.943 1.638 8.541 8.541 0 0 0 5.342-7.347c.614-8.917 8.038-15.906 16.913-15.906 5.726 0 11.042 2.867 14.217 7.663 3.166 4.779 11.068 4.779 14.225 0 5.82-8.764 19.396-9.993 26.692-2.142a8.5 8.5 0 0 0 7.936 2.56 8.533 8.533 0 0 0 6.332-5.41c2.466-6.707 8.866-11.204 15.932-11.204 9.404 0 17.067 7.654 17.058 16.853-.026.179-.119.998-.137 1.178a8.511 8.511 0 0 0 3.345 7.441 8.503 8.503 0 0 0 8.064 1.237c7.381-2.662 13.688-.538 18.27 4.412a8.526 8.526 0 0 0 7.936 2.56 8.533 8.533 0 0 0 6.332-5.41c2.466-6.707 8.866-11.204 15.932-11.204 7.629 0 14.37 5.197 16.384 12.638a8.52 8.52 0 0 0 4.429 5.41 8.536 8.536 0 0 0 6.989.282c7.765-3.132 16.393-.102 20.71 6.716a8.516 8.516 0 0 0 11.409 2.859c7.33-4.13 15.923-2.338 21.043 3.362a8.512 8.512 0 0 0 6.349 2.833 8.457 8.457 0 0 0 5.7-2.184c3.507-3.149 3.806-8.542.657-12.049-8.747-9.737-22.912-13.739-35.379-9.779-7.373-7.467-18.099-11.247-28.663-9.779-5.948-10.53-17.195-17.374-29.628-17.374-10.402 0-20.087 4.838-26.453 12.698-5.265-2.876-11.247-4.36-17.289-4.147-3.789-14.712-17.178-25.617-33.058-25.617-10.394 0-20.062 4.821-26.428 12.663-11.631-6.374-27.221-4.949-37.572 3.371a33.98 33.98 0 0 0-21.333-7.501c-13.355 0-25.071 7.851-30.618 19.302-6.955-2.671-14.822-2.97-22.024-.691-6.34-6.4-14.95-10.078-24.158-10.078a8.533 8.533 0 0 0-.002 17.065zM503.469 324.262H8.535a8.536 8.536 0 0 0-8.533 8.533c0 23.526 19.14 42.667 42.667 42.667h9.003c4.258 38.349 36.864 68.267 76.331 68.267h256c39.467 0 72.064-29.918 76.322-68.267h9.011c23.526 0 42.667-19.14 42.667-42.667a8.532 8.532 0 0 0-8.534-8.533zm-34.134 34.133h-17.067a8.53 8.53 0 0 0-8.533 8.533c0 32.939-26.803 59.733-59.733 59.733h-256c-30.046 0-54.972-22.289-59.127-51.2h349.261c4.719 0 8.533-3.823 8.533-8.533s-3.814-8.533-8.533-8.533H42.669c-11.128 0-20.617-7.134-24.141-17.067h474.948c-3.524 9.933-13.013 17.067-24.141 17.067zM5.173 255.304l119.467 51.2a8.51 8.51 0 0 0 3.354.7 8.536 8.536 0 0 0 7.851-5.18c1.86-4.335-.154-9.353-4.48-11.204l-119.467-51.2c-4.335-1.86-9.361.154-11.204 4.48a8.53 8.53 0 0 0 4.479 11.204z" fill="#2e294e" data-original="#000000"></path></g></svg>