<svg xmlns="http://www.w3.org/2000/svg" version="1.1" xmlns:xlink="http://www.w3.org/1999/xlink" xmlns:svgjs="http://svgjs.com/svgjs" width="512" height="512" x="0" y="0" viewBox="0 0 512 512" style="enable-background:new 0 0 512 512" xml:space="preserve" class=""><g><path fill="#2e294e" fill-rule="evenodd" d="M512 310c0 108-87.867 195.868-195.871 195.868H40a40 40 0 1 1 0-80h276.128a115.869 115.869 0 1 0 0-231.738H136.57l39.716 39.71a40 40 0 1 1-56.569 56.571l-108-108a40 40 0 0 1 0-56.571l108-108a40 40 0 0 1 56.569 56.571l-39.716 39.723h179.558C424.132 114.134 512 202 512 310z" data-original="#2196f3" class=""></path></g></svg>