<svg xmlns="http://www.w3.org/2000/svg" version="1.1" xmlns:xlink="http://www.w3.org/1999/xlink" xmlns:svgjs="http://svgjs.com/svgjs" width="512" height="512" x="0" y="0" viewBox="0 0 512 512" style="enable-background:new 0 0 512 512" xml:space="preserve" class=""><g><path d="m384.956 27.645 99.398 99.398c23.527 23.527 23.527 61.672 0 85.199L318.619 349.578 162.422 193.38 299.756 27.645c23.527-23.527 61.673-23.527 85.2 0zM135.474 223.231l153.68 153.681" style="stroke-width:20;stroke-linecap:round;stroke-linejoin:round;stroke-miterlimit:10;" fill="none" stroke="#2e294e" stroke-width="20" stroke-linecap="round" stroke-linejoin="round" stroke-miterlimit="10" data-original="#000000"></path><path d="m318.619 349.577-17.75 17.75c-29.408 29.409-77.09 29.409-106.498 0l-49.312-49.312c-29.409-29.409-29.409-77.091 0-106.499l17.363-18.137M215.671 246.629 399.156 41.846M470.154 112.845 265.371 296.329M81 374.201h0M109.399 402.601h0M137.799 374.201h0M38.4 388.401h0M66.799 416.801h0M95.199 445.2h0M66.799 473.601h0M123.6 473.601h0M137.799 431h0M95.199 502h0M38.4 445.2h0M10 416.801h0" style="stroke-width:20;stroke-linecap:round;stroke-linejoin:round;stroke-miterlimit:10;" fill="none" stroke="#2e294e" stroke-width="20" stroke-linecap="round" stroke-linejoin="round" stroke-miterlimit="10" data-original="#000000"></path></g></svg>