<svg xmlns="http://www.w3.org/2000/svg" version="1.1" xmlns:xlink="http://www.w3.org/1999/xlink" xmlns:svgjs="http://svgjs.com/svgjs" width="512" height="512" x="0" y="0" viewBox="0 0 32 32" style="enable-background:new 0 0 512 512" xml:space="preserve" class=""><g><path d="M24.35 2H7.65a3.08 3.08 0 0 0-3.08 3.09V28a2 2 0 0 0 1.15 1.8 2.06 2.06 0 0 0 2.17-.25l7.43-5.95a1.08 1.08 0 0 1 1.36 0l7.43 5.95a2 2 0 0 0 1.28.45 2.17 2.17 0 0 0 .89-.2 2 2 0 0 0 1.15-1.8V5.09A3.08 3.08 0 0 0 24.35 2zm1.06 26h-.05l-7.43-6a3.07 3.07 0 0 0-3.86 0l-7.5 6V5.09A1.08 1.08 0 0 1 7.65 4h16.7a1.08 1.08 0 0 1 1.08 1.09z" data-name="Layer 31" fill="#2e294e" data-original="#000000" class=""></path></g></svg>