<svg xmlns="http://www.w3.org/2000/svg" version="1.1" xmlns:xlink="http://www.w3.org/1999/xlink" xmlns:svgjs="http://svgjs.com/svgjs" width="512" height="512" x="0" y="0" viewBox="0 0 512.015 512.015" style="enable-background:new 0 0 512 512" xml:space="preserve" class=""><g><path d="M298.594 256.011 503.183 51.422c11.776-11.776 11.776-30.81 0-42.586s-30.81-11.776-42.586 0L256.008 213.425 51.418 8.836C39.642-2.94 20.608-2.94 8.832 8.836s-11.776 30.81 0 42.586l204.589 204.589L8.832 460.6c-11.776 11.776-11.776 30.81 0 42.586a30.034 30.034 0 0 0 21.293 8.824c7.71 0 15.42-2.952 21.293-8.824l204.589-204.589 204.589 204.589a30.034 30.034 0 0 0 21.293 8.824c7.71 0 15.42-2.952 21.293-8.824 11.776-11.776 11.776-30.81 0-42.586L298.594 256.011z" fill="#2e294e" data-original="#000000" class=""></path></g></svg>